<svg xmlns="http://www.w3.org/2000/svg" viewBox="0 0 1489.32 2579.48" width="1489.32" height="2579.48" style="background-color: transparent;"><defs><style>@import url('https://fonts.googleapis.com/css2?family=Caveat+Brush&amp;family=Source+Code+Pro&amp;family=Source+Sans+Pro&amp;family=Crimson+Pro&amp;display=block');</style></defs><g transform="translate(16.00, 958.39) rotate(0.00, 100.00, 100.00)"><rect width="200" height="200" fill="#78c4d0" rx="3" ry="3"/><text font-size="24px" font-family="Source Code Pro" font-weight="normal" line-height="24px" letter-spacing="-0.03em" text-align="center" dominant-baseline="mathematical" alignment-baseline="mathematical" text-anchor="middle" fill="#0d0d0d" transform="translate(16, 16)"><tspan y="12px" x="84">C:Class 

</tspan><tspan y="36px" x="84">E:Enum 

</tspan><tspan y="60px" x="84">I:Interface 

</tspan><tspan y="84px" x="84">m:Method 
 
</tspan></text></g><g text-align="center" text-anchor="middle" transform="translate(328.06, 16.00) rotate(0.00, 437.29, 216.32)"><g id="3123e3ce-ecc4-4caf-297a-c6515e829ad1_svg" class="tl-centered-g"><path d="M875.32,86.20 Q875.24,98.31 875.19,105.91 T875.09,121.50 875.00,137.59 874.90,153.80 874.80,170.04 874.70,186.30 874.60,202.55 874.56,218.81 874.56,235.06 874.56,251.32 874.56,267.57 874.57,283.83 874.57,300.08 874.57,316.34 874.57,332.59 874.57,348.85 874.58,365.10 874.58,381.36 874.58,397.61 874.58,413.89 872.70,426.14 864.04,431.39 849.44,432.76 833.57,433.03 817.38,433.08 801.10,433.07 784.80,433.04 768.50,433.01 752.19,432.98 735.88,432.95 719.57,432.92 703.26,432.89 686.96,432.86 670.65,432.83 654.34,432.80 638.03,432.77 621.72,432.74 605.41,432.71 589.11,432.68 572.80,432.65 556.49,432.62 540.18,432.59 523.87,432.56 507.57,432.53 491.26,432.50 474.95,432.47 458.64,432.44 442.33,432.43 426.02,432.43 409.72,432.45 393.41,432.47 377.10,432.49 360.79,432.51 344.48,432.53 328.18,432.55 311.87,432.57 295.56,432.59 279.25,432.61 262.94,432.63 246.63,432.64 230.33,432.66 214.02,432.68 197.71,432.70 181.40,432.72 165.09,432.74 148.79,432.76 132.48,432.78 116.17,432.80 99.86,432.82 83.55,432.84 67.24,432.86 50.94,432.87 34.63,432.89 18.30,432.91 6.01,431.05 0.77,422.42 -0.58,407.89 -0.81,392.10 -0.82,375.99 -0.78,359.80 -0.72,343.58 -0.66,327.35 -0.59,311.13 -0.53,294.90 -0.47,278.68 -0.40,262.45 -0.34,246.22 -0.28,230.00 -0.26,213.77 -0.30,197.55 -0.34,181.32 -0.37,165.09 -0.41,148.87 -0.45,132.64 -0.48,116.42 -0.52,100.19 -0.56,83.96 -0.59,67.74 -0.63,51.51 -0.67,35.29 -0.70,19.03 1.16,6.80 9.82,1.55 24.43,0.17 40.32,-0.11 56.52,-0.17 72.82,-0.18 89.14,-0.17 105.46,-0.15 121.78,-0.14 138.11,-0.12 154.43,-0.11 170.76,-0.09 187.08,-0.07 203.41,-0.06 219.73,-0.04 236.06,-0.03 252.38,-0.01 268.71,0.00 285.03,0.02 301.36,0.04 317.68,0.05 334.01,0.07 350.33,0.08 366.66,0.10 382.98,0.11 399.31,0.13 415.63,0.14 431.96,0.15 448.28,0.13 464.61,0.09 480.93,0.06 497.26,0.03 513.58,-0.01 529.91,-0.04 546.23,-0.07 562.56,-0.11 578.88,-0.14 595.21,-0.17 611.53,-0.21 627.86,-0.24 644.18,-0.27 660.51,-0.31 676.83,-0.34 693.16,-0.37 709.48,-0.41 725.81,-0.44 742.13,-0.47 758.46,-0.51 774.78,-0.54 791.11,-0.58 807.43,-0.61 823.76,-0.64 840.08,-0.68 856.43,-0.70 868.73,1.15 873.96,9.78 875.28,24.34 875.48,40.16 875.46,56.30 875.38,72.52 875.29,88.77 875.19,105.02 875.09,121.28 875.00,137.53 874.90,153.78 874.80,170.04 874.70,186.29 874.60,202.55 874.56,218.81 874.55,237.84 874.51,248.93 874.40,249.26 874.19,249.54 873.90,249.74 873.56,249.83 873.21,249.81 872.88,249.68 872.61,249.45 872.43,249.15 872.36,248.80 872.40,248.46 872.55,248.14 872.79,247.88 873.10,247.72 873.45,247.66 873.79,247.72 874.10,247.89 874.34,248.14 874.49,248.46 874.53,248.81 874.45,249.15 874.27,249.45 874.00,249.68 873.67,249.81 873.32,249.83 872.98,249.73 872.69,249.53 872.48,249.25 872.37,248.92 872.34,248.75 872.40,237.84 872.51,218.80 872.55,202.54 872.55,186.29 872.55,170.03 872.55,153.78 872.55,137.52 872.54,121.27 872.54,105.01 872.54,88.76 872.53,72.52 872.51,56.30 872.43,40.21 872.14,24.60 871.25,10.89 867.56,3.68 856.39,2.56 840.09,2.55 823.76,2.54 807.44,2.52 791.11,2.50 774.79,2.49 758.46,2.47 742.14,2.46 725.81,2.44 709.49,2.43 693.16,2.41 676.84,2.39 660.51,2.38 644.19,2.36 627.86,2.35 611.54,2.33 595.21,2.32 578.89,2.30 562.56,2.29 546.24,2.27 529.91,2.25 513.59,2.24 497.26,2.22 480.94,2.21 464.61,2.19 448.29,2.18 431.96,2.17 415.64,2.19 399.31,2.23 382.99,2.26 366.66,2.29 350.34,2.33 334.01,2.36 317.69,2.39 301.36,2.43 285.04,2.46 268.71,2.49 252.39,2.53 236.06,2.56 219.74,2.60 203.41,2.63 187.09,2.66 170.76,2.70 154.44,2.73 138.11,2.76 121.79,2.80 105.46,2.83 89.14,2.86 72.82,2.90 56.54,2.95 40.38,3.06 24.70,3.38 10.93,4.29 3.69,7.98 2.54,19.09 2.48,35.29 2.42,51.51 2.36,67.74 2.29,83.97 2.23,100.19 2.17,116.42 2.10,132.64 2.04,148.87 1.98,165.10 1.91,181.32 1.85,197.55 1.79,213.77 1.77,230.00 1.81,246.23 1.85,262.45 1.88,278.68 1.92,294.90 1.96,311.13 1.99,327.36 2.03,343.58 2.07,359.79 2.13,375.98 2.24,392.05 2.56,407.63 3.48,421.31 7.18,428.52 18.35,429.64 34.63,429.67 50.94,429.70 67.25,429.73 83.55,429.76 99.86,429.79 116.17,429.82 132.48,429.85 148.79,429.88 165.09,429.91 181.40,429.94 197.71,429.97 214.02,430.00 230.33,430.03 246.64,430.06 262.94,430.09 279.25,430.12 295.56,430.15 311.87,430.18 328.18,430.21 344.48,430.24 360.79,430.27 377.10,430.30 393.41,430.33 409.72,430.36 426.03,430.38 442.33,430.40 458.64,430.40 474.95,430.38 491.26,430.36 507.57,430.34 523.87,430.32 540.18,430.30 556.49,430.28 572.80,430.26 589.11,430.24 605.42,430.22 621.72,430.20 638.03,430.19 654.34,430.17 670.65,430.15 686.96,430.13 703.26,430.11 719.57,430.09 735.88,430.07 752.19,430.05 768.50,430.03 784.80,430.01 801.10,429.99 817.37,429.95 833.51,429.86 849.17,429.55 862.93,428.66 870.17,424.96 871.34,413.83 871.43,397.60 871.53,381.35 871.63,365.09 871.72,348.84 871.82,332.58 871.92,316.33 872.02,300.07 872.12,283.82 872.21,267.56 872.31,251.31 872.41,235.05 872.51,218.80 872.55,202.54 872.55,186.29 872.55,170.04 872.55,153.79 872.55,137.58 872.54,121.49 872.54,105.90 872.53,92.25 872.54,86.03 872.62,85.70 872.78,85.40 873.00,85.15 873.28,84.96 873.59,84.85 873.93,84.81 874.26,84.85 874.57,84.97 874.85,85.16 875.07,85.41 875.22,85.71 875.30,86.03 Z" fill="#0e98ad" stroke="#0e98ad" stroke-width="2" pointer-events="none"/></g><text font-size="28px" font-family="Source Code Pro" font-weight="normal" line-height="28px" letter-spacing="-0.03em" text-align="center" dominant-baseline="mathematical" alignment-baseline="mathematical" text-anchor="middle" transform="translate(240.78500000000003, 43.31)" fill="#0e98ad" transform-origin="center center"><tspan y="14px" x="196.5">Actionable(I) 
 
</tspan><tspan y="42px" x="196.5">
 
</tspan><tspan y="70px" x="196.5">
distributeCategory(m)
 
</tspan><tspan y="98px" x="196.5">
deletedInCategory(m)
 
</tspan><tspan y="126px" x="196.5">

</tspan><tspan y="154px" x="196.5">scienceCategory&lt;list&gt;
</tspan><tspan y="182px" x="196.5">
actionCategory&lt;list&gt;

</tspan><tspan y="210px" x="196.5">adventureCategory&lt;list&gt;
</tspan><tspan y="238px" x="196.5">
usersBooks&lt;list&gt;

</tspan><tspan y="266px" x="196.5">allBooks&lt;map&gt;
</tspan></text></g><g id="ce1482fc-97d2-4c4d-221b-e6addcb21b52_svg" class="tl-centered-g" transform="translate(527.77, 450.83) rotate(0.00, 1.26, 141.99)"><defs><mask id="ce1482fc-97d2-4c4d-221b-e6addcb21b52_clip"><rect x="-100" y="-100" width="202.52" height="483.97" fill="white"/><rect x="1.26" y="141.98" width="0" height="0" rx="4" ry="4" fill="black" opacity="1"/></mask></defs><g pointer-events="none" opacity="1" mask=""><path d="M-0.85,283.96 Q-0.14,213.47 0.20,178.22 T0.88,107.73 1.55,37.24 1.90,1.90 1.96,1.71 2.08,1.55 2.25,1.44 2.44,1.39 2.64,1.40 2.82,1.48 2.97,1.61 3.07,1.78 3.12,1.97 3.09,2.17 3.01,2.35 2.87,2.49 2.69,2.58 2.50,2.61 2.30,2.58 2.13,2.49 1.99,2.34 1.91,2.16 1.89,1.96 1.93,1.77 2.04,1.60 2.19,1.47 2.38,1.40 2.57,1.39 2.77,1.45 2.93,1.56 3.05,1.72 3.11,1.91 3.12,2.01 2.83,37.25 2.24,107.74 1.67,178.24 1.12,248.73 0.84,284.08 0.79,284.28 0.69,284.46 0.55,284.61 0.39,284.72 0.19,284.79 -0.01,284.81 -0.21,284.79 -0.40,284.71 -0.56,284.60 -0.70,284.44 -0.79,284.26 -0.84,284.06 Z" fill="#0e98ad" stroke="#0e98ad" stroke-width="2.11" stroke-dasharray="none" stroke-dashoffset="none" stroke-linecap="round" stroke-linejoin="round" pointer-events="stroke"/><g><path d="M -5.602644374484841,13.784870270178454 L 2.52,0 10.39,13.92685150929986" fill="none" stroke="#0e98ad" stroke-width="4.23" stroke-linecap="round" stroke-linejoin="round" pointer-events="none"/></g></g></g><g id="f492aad5-4e3c-42c8-323e-2d162bffd937_svg" class="tl-centered-g" transform="translate(939.45, 450.83) rotate(0.00, 1.26, 141.99)"><defs><mask id="f492aad5-4e3c-42c8-323e-2d162bffd937_clip"><rect x="-100" y="-100" width="202.52" height="483.97" fill="white"/><rect x="1.26" y="141.98" width="0" height="0" rx="4" ry="4" fill="black" opacity="1"/></mask></defs><g pointer-events="none" opacity="1" mask=""><path d="M-0.85,283.96 Q-0.14,213.47 0.20,178.22 T0.88,107.73 1.55,37.24 1.90,1.90 1.96,1.71 2.08,1.55 2.25,1.44 2.44,1.39 2.64,1.40 2.82,1.48 2.97,1.61 3.07,1.78 3.12,1.97 3.09,2.17 3.01,2.35 2.87,2.49 2.69,2.58 2.50,2.61 2.30,2.58 2.13,2.49 1.99,2.34 1.91,2.16 1.89,1.96 1.93,1.77 2.04,1.60 2.19,1.47 2.38,1.40 2.57,1.39 2.77,1.44 2.93,1.56 3.05,1.72 3.11,1.91 3.12,2.01 2.83,37.25 2.24,107.74 1.67,178.24 1.12,248.73 0.84,284.08 0.79,284.28 0.69,284.46 0.55,284.61 0.39,284.72 0.19,284.79 -0.01,284.81 -0.21,284.79 -0.40,284.71 -0.56,284.60 -0.70,284.44 -0.79,284.26 -0.84,284.06 Z" fill="#0e98ad" stroke="#0e98ad" stroke-width="2.11" stroke-dasharray="none" stroke-dashoffset="none" stroke-linecap="round" stroke-linejoin="round" pointer-events="stroke"/><g><path d="M -5.602644374484841,13.784870270178454 L 2.52,0 10.39,13.92685150929986" fill="none" stroke="#0e98ad" stroke-width="4.23" stroke-linecap="round" stroke-linejoin="round" pointer-events="none"/></g></g></g><g text-align="center" text-anchor="middle" transform="translate(374.86, 738.13) rotate(0.00, 155.51, 110.98)"><g id="5a50819c-045e-4685-3f59-ca13af9621ab_svg" class="tl-centered-g"><path d="M221.92,222.46 Q209.48,222.41 201.68,222.38 T185.66,222.33 169.14,222.28 152.50,222.31 135.81,222.40 119.12,222.50 102.43,222.59 85.74,222.69 69.04,222.78 52.35,222.88 35.66,222.98 18.94,223.07 6.41,221.24 1.12,212.06 -0.19,196.31 -0.39,179.13 -0.36,161.57 -0.28,143.92 -0.18,126.24 -0.18,108.55 -0.30,90.87 -0.41,73.18 -0.52,55.49 -0.64,37.80 -0.75,20.09 1.07,6.94 9.87,1.47 24.80,0.05 41.06,-0.22 57.65,-0.26 74.33,-0.23 91.04,-0.20 107.74,-0.16 124.46,-0.12 141.17,-0.08 157.88,-0.11 174.59,-0.21 191.30,-0.31 208.01,-0.41 224.72,-0.52 241.44,-0.62 258.15,-0.72 274.86,-0.83 291.59,-0.92 304.14,0.90 309.42,10.08 310.71,25.84 310.88,43.03 310.82,60.60 310.71,78.26 310.59,95.95 310.57,113.65 310.65,131.35 310.74,149.05 310.83,166.75 310.91,184.45 310.99,202.17 309.16,215.33 300.36,220.79 285.44,222.20 269.20,222.47 252.63,222.50 235.97,222.47 219.28,222.43 202.59,222.38 185.90,222.33 169.20,222.28 152.51,222.31 132.96,222.40 121.57,222.43 121.23,222.31 120.94,222.09 120.73,221.79 120.63,221.44 120.65,221.07 120.79,220.73 121.02,220.45 121.34,220.26 121.69,220.18 122.06,220.22 122.39,220.38 122.65,220.63 122.82,220.95 122.88,221.31 122.83,221.67 122.65,221.99 122.39,222.25 122.06,222.40 121.70,222.44 121.34,222.36 121.02,222.17 120.79,221.90 120.65,221.56 120.63,221.19 120.73,220.84 120.93,220.54 121.22,220.32 121.57,220.20 121.75,220.17 132.96,220.19 152.51,220.23 169.20,220.21 185.89,220.11 202.59,220.02 219.28,219.92 235.96,219.82 252.61,219.70 269.14,219.53 285.17,219.14 299.25,218.11 306.63,214.16 307.81,202.12 307.94,184.44 308.07,166.75 308.20,149.05 308.33,131.35 308.46,113.65 308.48,95.95 308.39,78.26 308.28,60.61 308.12,43.08 307.74,26.08 306.75,11.15 302.96,3.41 291.55,2.29 274.86,2.26 258.15,2.22 241.44,2.17 224.73,2.13 208.02,2.09 191.31,2.05 174.59,2.01 157.88,1.97 141.17,2.00 124.46,2.10 107.75,2.20 91.04,2.31 74.34,2.42 57.67,2.54 41.12,2.72 25.08,3.12 10.98,4.15 3.60,8.10 2.44,20.13 2.34,37.80 2.23,55.49 2.13,73.18 2.03,90.86 1.92,108.55 1.93,126.24 2.05,143.92 2.18,161.56 2.37,179.08 2.77,196.07 3.78,210.99 7.58,218.73 18.98,219.85 35.65,219.89 52.35,219.94 69.04,219.99 85.73,220.04 102.43,220.09 119.12,220.14 135.81,220.18 152.49,220.23 169.14,220.21 185.66,220.11 201.67,220.02 215.70,219.93 222.07,219.90 222.37,219.97 222.64,220.12 222.87,220.32 223.05,220.58 223.16,220.86 223.20,221.17 223.16,221.48 223.05,221.76 222.88,222.02 222.64,222.22 222.37,222.37 222.07,222.44 Z" fill="#0e98ad" stroke="#0e98ad" stroke-width="2" pointer-events="none"/></g><text font-size="28px" font-family="Source Code Pro" font-weight="normal" line-height="28px" letter-spacing="-0.03em" text-align="center" dominant-baseline="mathematical" alignment-baseline="mathematical" text-anchor="middle" transform="translate(7.009999999999991, 21.98)" fill="#0e98ad" transform-origin="center center"><tspan y="14px" x="148.5">UserDoable(I) 
 
</tspan><tspan y="42px" x="148.5">
 
</tspan><tspan y="70px" x="148.5">

</tspan><tspan y="98px" x="148.5">addUserList(m) 
 
</tspan><tspan y="126px" x="148.5">

</tspan><tspan y="154px" x="148.5">removeUserList(m)
</tspan></text></g><g text-align="center" text-anchor="middle" transform="translate(789.90, 734.77) rotate(0.00, 167.69, 110.98)"><g id="37f2355f-6208-4fc0-027c-47ede2757056_svg" class="tl-centered-g"><path d="M244.96,222.43 Q232.23,222.38 224.24,222.36 T207.84,222.32 190.93,222.28 173.88,222.28 156.80,222.34 139.71,222.44 122.62,222.54 105.53,222.64 88.44,222.74 71.35,222.83 54.25,222.93 37.16,223.03 20.05,223.12 7.26,221.30 1.91,212.13 0.57,196.41 0.36,179.24 0.38,161.71 0.45,144.08 0.54,126.43 0.53,108.76 0.41,91.10 0.28,73.44 0.16,55.77 0.04,38.11 -0.08,20.42 1.73,7.28 10.68,1.82 25.95,0.43 42.59,0.18 59.57,0.17 76.65,0.22 93.76,0.28 110.87,0.34 127.98,0.41 145.09,0.47 162.20,0.50 179.31,0.47 196.42,0.40 213.53,0.33 230.65,0.25 247.76,0.18 264.87,0.11 281.98,0.04 299.09,-0.03 316.22,-0.10 329.02,1.75 334.36,10.90 335.67,26.59 335.86,43.72 335.81,61.21 335.70,78.79 335.58,96.41 335.57,114.03 335.66,131.65 335.75,149.27 335.84,166.89 335.94,184.51 336.02,202.16 334.19,215.26 325.24,220.73 309.99,222.14 293.37,222.41 276.40,222.45 259.34,222.43 242.26,222.40 225.17,222.36 208.08,222.32 190.99,222.28 173.90,222.28 156.80,222.34 136.79,222.45 125.13,222.47 124.77,222.35 124.48,222.13 124.27,221.82 124.17,221.46 124.19,221.08 124.32,220.74 124.56,220.45 124.88,220.26 125.25,220.18 125.62,220.22 125.96,220.37 126.23,220.63 126.41,220.96 126.47,221.33 126.41,221.70 126.24,222.03 125.96,222.29 125.63,222.44 125.25,222.48 124.89,222.40 124.57,222.21 124.32,221.93 124.19,221.58 124.17,221.21 124.26,220.85 124.47,220.54 124.77,220.31 125.13,220.19 125.31,220.16 136.78,220.17 156.80,220.21 173.89,220.21 190.98,220.15 208.08,220.05 225.17,219.95 242.26,219.85 259.34,219.75 276.39,219.63 293.31,219.46 309.72,219.06 324.14,218.04 331.67,214.10 332.84,202.11 332.96,184.51 333.09,166.89 333.21,149.27 333.33,131.64 333.46,114.02 333.47,96.40 333.38,78.79 333.27,61.21 333.10,43.76 332.71,26.84 331.70,11.97 327.84,4.26 316.18,3.13 299.09,3.07 281.98,3.00 264.87,2.93 247.76,2.87 230.65,2.80 213.53,2.74 196.42,2.67 179.31,2.60 162.20,2.57 145.09,2.61 127.98,2.68 110.87,2.75 93.76,2.82 76.66,2.90 59.59,2.99 42.65,3.14 26.22,3.51 11.78,4.52 4.25,8.45 3.10,20.46 3.01,38.10 2.92,55.77 2.82,73.43 2.73,91.10 2.64,108.76 2.65,126.42 2.78,144.08 2.92,161.70 3.12,179.19 3.54,196.16 4.57,211.06 8.44,218.78 20.09,219.90 37.16,219.93 54.25,219.97 71.34,220.01 88.43,220.05 105.52,220.09 122.62,220.13 139.71,220.17 156.80,220.21 173.88,220.21 190.92,220.15 207.84,220.05 224.23,219.95 238.59,219.86 245.11,219.83 245.42,219.91 245.69,220.05 245.93,220.26 246.11,220.52 246.22,220.81 246.26,221.12 246.22,221.43 246.11,221.72 245.93,221.98 245.70,222.19 245.42,222.34 245.12,222.41 Z" fill="#0e98ad" stroke="#0e98ad" stroke-width="2" pointer-events="none"/></g><text font-size="28px" font-family="Source Code Pro" font-weight="normal" line-height="28px" letter-spacing="-0.03em" text-align="center" dominant-baseline="mathematical" alignment-baseline="mathematical" text-anchor="middle" transform="translate(3.194999999999993, 21.98)" fill="#0e98ad" transform-origin="center center"><tspan y="14px" x="164.5">AdminDoable(I) 
 
</tspan><tspan y="42px" x="164.5">
 
</tspan><tspan y="70px" x="164.5">

</tspan><tspan y="98px" x="164.5">addLibraryList(m) 
 
</tspan><tspan y="126px" x="164.5">
removeLibraryList(m)
</tspan></text></g><g text-align="center" text-anchor="middle" transform="translate(353.98, 1246.43) rotate(0.00, 178.63, 110.98)"><g id="4d18d1e2-1bed-4e64-2701-d62f1675e4f2_svg" class="tl-centered-g"><path d="M-0.69,128.51 Q-0.59,115.30 -0.64,107.01 T-0.75,90.00 -0.86,72.45 -0.97,54.76 -1.08,37.03 -1.18,19.28 0.63,6.10 9.39,0.64 24.20,-0.74 40.33,-0.97 56.79,-0.97 73.33,-0.90 89.90,-0.82 106.47,-0.73 123.04,-0.65 139.62,-0.56 156.19,-0.48 172.76,-0.42 189.34,-0.43 205.91,-0.47 222.49,-0.50 239.06,-0.54 255.64,-0.58 272.21,-0.62 288.78,-0.66 305.36,-0.69 321.93,-0.73 338.53,-0.76 350.99,1.10 356.22,10.28 357.46,26.02 357.58,43.20 357.47,60.74 357.31,78.38 357.13,96.05 357.06,113.72 357.09,131.40 357.12,149.07 357.16,166.75 357.19,184.43 357.22,202.12 355.35,215.26 346.61,220.73 331.82,222.13 315.74,222.40 299.32,222.42 282.82,222.39 266.30,222.34 249.77,222.29 233.24,222.24 216.71,222.19 200.18,222.14 183.65,222.12 167.12,222.16 150.59,222.23 134.06,222.30 117.53,222.37 101.00,222.44 84.47,222.52 67.94,222.59 51.41,222.66 34.87,222.73 18.32,222.80 5.89,220.95 0.63,211.76 -0.67,195.97 -0.86,178.74 -0.83,161.14 -0.74,143.44 -0.64,125.71 -0.64,107.98 -0.75,87.21 -0.77,75.11 -0.65,74.74 -0.41,74.43 -0.09,74.22 0.28,74.11 0.67,74.13 1.03,74.28 1.33,74.53 1.53,74.86 1.61,75.24 1.57,75.63 1.40,75.98 1.14,76.26 0.79,76.44 0.41,76.51 0.03,76.44 -0.32,76.26 -0.58,75.98 -0.75,75.63 -0.79,75.24 -0.70,74.86 -0.50,74.53 -0.21,74.28 0.15,74.13 0.54,74.11 0.92,74.22 1.24,74.43 1.47,74.74 1.60,75.11 1.63,75.31 1.57,87.21 1.47,107.98 1.47,125.71 1.58,143.44 1.71,161.13 1.90,178.69 2.29,195.73 3.30,210.69 7.07,218.45 18.37,219.57 34.87,219.62 51.40,219.67 67.93,219.72 84.46,219.77 101.00,219.82 117.53,219.88 134.06,219.93 150.59,219.98 167.12,220.03 183.65,220.05 200.18,220.01 216.71,219.94 233.24,219.87 249.77,219.80 266.30,219.72 282.82,219.65 299.31,219.56 315.68,219.41 331.55,219.04 345.49,218.03 352.82,214.09 354.03,202.07 354.21,184.41 354.40,166.74 354.58,149.06 354.76,131.39 354.95,113.71 355.02,96.04 354.98,78.37 354.93,60.74 354.82,43.23 354.50,26.25 353.56,11.34 349.80,3.61 338.48,2.46 321.93,2.38 305.35,2.30 288.78,2.21 272.21,2.13 255.63,2.04 239.06,1.95 222.48,1.87 205.91,1.78 189.34,1.69 172.76,1.64 156.19,1.65 139.61,1.68 123.04,1.72 106.46,1.76 89.89,1.80 73.33,1.84 56.80,1.90 40.39,2.02 24.48,2.35 10.49,3.33 3.16,7.27 2.00,19.32 1.90,37.03 1.79,54.76 1.68,72.45 1.57,90.00 1.47,107.01 1.47,121.91 1.51,128.65 1.44,128.90 1.32,129.14 1.14,129.34 0.93,129.49 0.68,129.58 0.41,129.61 0.15,129.58 -0.10,129.49 -0.32,129.34 -0.49,129.14 -0.61,128.90 -0.68,128.65 Z" fill="#0e98ad" stroke="#0e98ad" stroke-width="2" pointer-events="none"/></g><text font-size="28px" font-family="Source Code Pro" font-weight="normal" line-height="28px" letter-spacing="-0.03em" text-align="center" dominant-baseline="mathematical" alignment-baseline="mathematical" text-anchor="middle" transform="translate(30.13499999999999, 21.98)" fill="#0e98ad" transform-origin="center center"><tspan y="14px" x="148.5">Users(C) 
 
</tspan><tspan y="42px" x="148.5">
 
</tspan><tspan y="70px" x="148.5">

</tspan><tspan y="98px" x="148.5">addUserList(m) 
 
</tspan><tspan y="126px" x="148.5">

</tspan><tspan y="154px" x="148.5">removeUserList(m)
</tspan></text></g><g text-align="center" text-anchor="middle" transform="translate(777.00, 1164.44) rotate(0.00, 185.43, 150.29)"><g id="f1d791bc-3ffc-4464-330f-2c69bc345aa9_svg" class="tl-centered-g"><path d="M283.63,300.54 Q271.44,300.49 263.79,300.47 T248.10,300.42 231.91,300.38 215.59,300.34 199.24,300.29 182.88,300.31 166.52,300.38 150.15,300.46 133.79,300.53 117.43,300.61 101.07,300.68 84.71,300.76 68.34,300.83 51.98,300.90 35.62,300.98 19.23,301.05 6.91,299.22 1.65,290.28 0.29,275.07 0.03,258.49 -0.01,241.57 0.00,224.55 0.03,207.51 0.07,190.46 0.10,173.41 0.10,156.36 0.02,139.31 -0.09,122.26 -0.21,105.21 -0.33,88.16 -0.45,71.11 -0.56,54.06 -0.68,37.01 -0.79,19.94 1.01,7.19 9.69,1.82 24.36,0.45 40.31,0.21 56.58,0.20 72.94,0.24 89.33,0.30 105.72,0.37 122.11,0.43 138.50,0.50 154.89,0.56 171.28,0.62 187.67,0.63 204.07,0.58 220.46,0.52 236.85,0.47 253.24,0.42 269.63,0.36 286.02,0.31 302.42,0.26 318.81,0.20 335.20,0.15 351.62,0.10 363.96,1.95 369.21,10.88 370.54,26.07 370.76,42.62 370.76,59.52 370.71,76.51 370.64,93.52 370.57,110.54 370.49,127.56 370.46,144.59 370.50,161.61 370.58,178.63 370.66,195.65 370.74,212.68 370.82,229.70 370.90,246.72 370.97,263.74 371.05,280.79 369.22,293.52 360.55,298.89 345.91,300.28 329.98,300.54 313.74,300.57 297.41,300.55 281.05,300.51 264.69,300.47 248.33,300.42 231.97,300.38 215.60,300.34 199.24,300.29 182.88,300.31 163.72,300.39 152.56,300.40 152.22,300.28 151.93,300.07 151.73,299.77 151.64,299.43 151.66,299.07 151.79,298.74 152.02,298.47 152.32,298.28 152.67,298.21 153.03,298.24 153.35,298.39 153.61,298.64 153.78,298.95 153.84,299.31 153.78,299.66 153.61,299.97 153.35,300.22 153.03,300.37 152.68,300.41 152.33,300.33 152.02,300.15 151.79,299.88 151.66,299.54 151.64,299.19 151.73,298.84 151.93,298.55 152.22,298.33 152.55,298.22 152.73,298.19 163.71,298.21 182.88,298.25 199.24,298.23 215.60,298.16 231.96,298.08 248.33,298.01 264.69,297.93 281.05,297.86 297.40,297.78 313.72,297.68 329.92,297.53 345.63,297.17 359.43,296.19 366.69,292.35 367.83,280.74 367.90,263.74 367.98,246.72 368.05,229.70 368.13,212.68 368.20,195.65 368.27,178.63 368.35,161.61 368.38,144.59 368.34,127.56 368.26,110.54 368.18,93.52 368.10,76.51 368.00,59.53 367.85,42.67 367.48,26.32 366.52,11.97 362.78,4.47 351.57,3.33 335.20,3.27 318.81,3.21 302.42,3.14 286.02,3.08 269.63,3.01 253.24,2.95 236.85,2.88 220.46,2.82 204.06,2.75 187.67,2.69 171.28,2.68 154.89,2.74 138.50,2.79 122.11,2.84 105.72,2.90 89.33,2.95 72.94,3.01 56.59,3.08 40.36,3.21 24.63,3.56 10.80,4.52 3.54,8.35 2.42,19.98 2.39,37.00 2.35,54.05 2.32,71.10 2.28,88.15 2.25,105.21 2.21,122.26 2.18,139.31 2.18,156.36 2.26,173.41 2.37,190.45 2.49,207.50 2.62,224.54 2.75,241.55 2.94,258.43 3.34,274.81 4.34,289.19 8.08,296.69 19.28,297.82 35.62,297.86 51.98,297.90 68.34,297.94 84.70,297.99 101.07,298.03 117.43,298.07 133.79,298.12 150.15,298.16 166.51,298.21 182.88,298.25 199.24,298.23 215.59,298.16 231.91,298.08 248.10,298.01 263.79,297.94 277.54,297.86 283.79,297.85 284.11,297.92 284.40,298.07 284.64,298.29 284.82,298.56 284.94,298.86 284.98,299.18 284.94,299.50 284.82,299.81 284.64,300.07 284.40,300.29 284.11,300.44 283.80,300.52 Z" fill="#0e98ad" stroke="#0e98ad" stroke-width="2" pointer-events="none"/></g><text font-size="28px" font-family="Source Code Pro" font-weight="normal" line-height="28px" letter-spacing="-0.03em" text-align="center" dominant-baseline="mathematical" alignment-baseline="mathematical" text-anchor="middle" transform="translate(20.92500000000001, 5.29)" fill="#0e98ad" transform-origin="center center"><tspan y="14px" x="164.5">Library(C) 
 
</tspan><tspan y="42px" x="164.5">
 
</tspan><tspan y="70px" x="164.5">

</tspan><tspan y="98px" x="164.5">addLibraryList(m) 
 
</tspan><tspan y="126px" x="164.5">
removeLibraryList(m)
 
</tspan><tspan y="154px" x="164.5">
listAllBooks(m)
 
</tspan><tspan y="182px" x="164.5">
getAllBooks(m)
</tspan></text></g><g id="d6ea829d-cff9-4b60-2266-ed8ebde2cd3e_svg" class="tl-centered-g" transform="translate(521.89, 960.81) rotate(0.00, 1.26, 141.99)"><defs><mask id="d6ea829d-cff9-4b60-2266-ed8ebde2cd3e_clip"><rect x="-100" y="-100" width="202.52" height="483.97" fill="white"/><rect x="1.26" y="141.98" width="0" height="0" rx="4" ry="4" fill="black" opacity="1"/></mask></defs><g pointer-events="none" opacity="1" mask=""><path d="M-1.05,283.96 Q-0.36,213.47 -0.03,178.22 T0.63,107.73 1.28,37.24 1.63,1.85 1.73,1.58 1.90,1.35 2.14,1.20 2.41,1.12 2.70,1.14 2.96,1.25 3.18,1.43 3.33,1.68 3.38,1.96 3.35,2.24 3.23,2.50 3.03,2.71 2.78,2.84 2.49,2.88 2.21,2.83 1.96,2.70 1.77,2.49 1.65,2.23 1.62,1.94 1.69,1.67 1.83,1.42 2.05,1.24 2.32,1.14 2.61,1.12 2.88,1.20 3.12,1.36 3.29,1.59 3.37,1.87 3.40,2.01 3.10,37.25 2.50,107.75 1.91,178.24 1.33,248.73 1.03,284.10 0.97,284.35 0.85,284.57 0.68,284.75 0.47,284.89 0.24,284.98 -0.01,285.01 -0.26,284.98 -0.49,284.88 -0.70,284.74 -0.86,284.55 -0.97,284.33 -1.03,284.09 Z" fill="#0e98ad" stroke="#0e98ad" stroke-width="2.11" stroke-dasharray="none" stroke-dashoffset="none" stroke-linecap="round" stroke-linejoin="round" pointer-events="stroke"/><g><path d="M -5.602644374484841,13.784870270178454 L 2.52,0 10.39,13.92685150929986" fill="none" stroke="#0e98ad" stroke-width="4.23" stroke-linecap="round" stroke-linejoin="round" pointer-events="none"/></g></g></g><g id="c469536d-7177-4ba9-2d4c-969755bdf89b_svg" class="tl-centered-g" transform="translate(936.09, 960.81) rotate(0.00, 0.61, 101.81)"><defs><mask id="c469536d-7177-4ba9-2d4c-969755bdf89b_clip"><rect x="-100" y="-100" width="201.22" height="403.63" fill="white"/><rect x="0.61" y="101.81" width="0" height="0" rx="4" ry="4" fill="black" opacity="1"/></mask></defs><g pointer-events="none" opacity="1" mask=""><path d="M0.23,203.64 Q-0.00,153.23 -0.13,128.02 T-0.39,77.62 -0.66,27.21 -0.78,1.87 -0.70,1.63 -0.54,1.42 -0.33,1.27 -0.08,1.20 0.18,1.21 0.42,1.31 0.62,1.48 0.76,1.70 0.81,1.95 0.79,2.21 0.68,2.45 0.50,2.64 0.27,2.76 0.02,2.80 -0.24,2.76 -0.47,2.64 -0.65,2.45 -0.76,2.22 -0.79,1.96 -0.74,1.71 -0.60,1.48 -0.41,1.31 -0.17,1.22 0.09,1.20 0.34,1.27 0.56,1.41 0.72,1.62 0.80,1.87 0.83,2.00 0.99,27.20 1.32,77.61 1.67,128.01 2.02,178.42 2.19,203.74 2.14,203.97 2.03,204.18 1.87,204.36 1.68,204.50 1.46,204.58 1.23,204.61 0.99,204.58 0.77,204.50 0.57,204.37 0.42,204.19 0.31,203.98 0.25,203.75 Z" fill="#0e98ad" stroke="#0e98ad" stroke-width="2.11" stroke-dasharray="none" stroke-dashoffset="none" stroke-linecap="round" stroke-linejoin="round" pointer-events="stroke"/><g><path d="M -7.91684059792523,13.90408698717909 L 0,0 8.08,13.808228569104779" fill="none" stroke="#0e98ad" stroke-width="4.23" stroke-linecap="round" stroke-linejoin="round" pointer-events="none"/></g></g></g><g id="e705e830-016a-41c4-35a3-3355cf35bd40_svg" class="tl-centered-g" transform="translate(521.90, 1470.18) rotate(0.00, 0.50, 101.06)"><defs><mask id="e705e830-016a-41c4-35a3-3355cf35bd40_clip"><rect x="-100" y="-100" width="201" height="402.11" fill="white"/><rect x="0.42" y="101.05" width="0" height="0" rx="4" ry="4" fill="black" opacity="1"/></mask></defs><g pointer-events="none" opacity="1" mask=""><path d="M1.03,-0.00 Q1.18,50.02 1.26,75.04 T1.43,125.06 1.61,175.09 1.68,200.25 1.59,200.51 1.42,200.73 1.19,200.89 0.93,200.96 0.65,200.95 0.39,200.85 0.18,200.67 0.04,200.43 -0.02,200.16 0.00,199.88 0.12,199.63 0.31,199.43 0.55,199.30 0.83,199.25 1.10,199.30 1.35,199.43 1.54,199.63 1.66,199.88 1.69,200.15 1.63,200.42 1.49,200.66 1.28,200.84 1.02,200.95 0.74,200.96 0.47,200.89 0.24,200.73 0.08,200.51 -0.01,200.25 -0.04,200.11 -0.15,175.10 -0.39,125.07 -0.63,75.05 -0.89,25.02 -1.01,-0.12 -0.95,-0.36 -0.84,-0.58 -0.68,-0.76 -0.48,-0.90 -0.25,-0.99 -0.00,-1.02 0.24,-0.99 0.47,-0.90 0.67,-0.77 0.84,-0.58 0.95,-0.37 1.01,-0.13 Z" fill="#0e98ad" stroke="#0e98ad" stroke-width="2.11" stroke-dasharray="none" stroke-dashoffset="none" stroke-linecap="round" stroke-linejoin="round" pointer-events="stroke"/><g><path d="M 8.78,188.2204642793819 L 0.84,202.11 -7.217519748697942,188.28696214649824" fill="none" stroke="#0e98ad" stroke-width="4.23" stroke-linecap="round" stroke-linejoin="round" pointer-events="none"/></g></g></g><g id="310d30ac-471e-462e-12ff-034b4ff73667_svg" class="tl-centered-g" transform="translate(947.02, 1465.14) rotate(0.00, 0.50, 101.06)"><defs><mask id="310d30ac-471e-462e-12ff-034b4ff73667_clip"><rect x="-100" y="-100" width="201" height="402.11" fill="white"/><rect x="0.42" y="101.05" width="0" height="0" rx="4" ry="4" fill="black" opacity="1"/></mask></defs><g pointer-events="none" opacity="1" mask=""><path d="M1.04,-0.00 Q1.19,50.02 1.27,75.04 T1.44,125.06 1.62,175.09 1.69,200.25 1.60,200.52 1.43,200.74 1.20,200.90 0.93,200.98 0.65,200.96 0.38,200.86 0.17,200.68 0.02,200.44 -0.04,200.16 -0.01,199.88 0.11,199.62 0.30,199.42 0.55,199.28 0.83,199.24 1.11,199.28 1.36,199.41 1.55,199.62 1.67,199.87 1.70,200.15 1.64,200.43 1.50,200.67 1.28,200.86 1.02,200.96 0.74,200.98 0.47,200.90 0.23,200.75 0.06,200.52 -0.03,200.25 -0.05,200.11 -0.17,175.10 -0.40,125.07 -0.65,75.05 -0.91,25.02 -1.02,-0.12 -0.97,-0.36 -0.85,-0.58 -0.69,-0.77 -0.48,-0.91 -0.25,-1.00 -0.00,-1.03 0.24,-1.00 0.48,-0.92 0.68,-0.77 0.85,-0.59 0.96,-0.37 1.02,-0.13 Z" fill="#0e98ad" stroke="#0e98ad" stroke-width="2.11" stroke-dasharray="none" stroke-dashoffset="none" stroke-linecap="round" stroke-linejoin="round" pointer-events="stroke"/><g><path d="M 8.78,188.2204642793819 L 0.84,202.11 -7.217519748697942,188.28696214649824" fill="none" stroke="#0e98ad" stroke-width="4.23" stroke-linecap="round" stroke-linejoin="round" pointer-events="none"/></g></g></g><g text-align="center" text-anchor="middle" transform="translate(384.66, 1675.79) rotate(0.00, 366.13, 119.94)"><g id="be2a99df-9a8c-459e-3ffb-6e6d34ed4116_svg" class="tl-centered-g"><path d="M732.21,93.18 Q732.16,106.34 732.19,114.60 T732.31,131.55 732.47,149.03 732.64,166.66 732.81,184.31 732.98,201.98 733.14,219.67 731.36,232.81 722.68,238.29 708.00,239.72 692.03,239.99 675.73,240.04 659.34,240.02 642.94,239.99 626.53,239.96 610.11,239.92 593.70,239.89 577.28,239.85 560.87,239.82 544.46,239.78 528.04,239.75 511.63,239.71 495.21,239.67 478.80,239.64 462.38,239.60 445.97,239.57 429.56,239.53 413.14,239.50 396.73,239.46 380.31,239.43 363.90,239.42 347.48,239.44 331.07,239.47 314.66,239.49 298.24,239.51 281.83,239.54 265.41,239.56 249.00,239.59 232.59,239.61 216.17,239.63 199.76,239.66 183.34,239.68 166.93,239.70 150.51,239.73 134.10,239.75 117.69,239.77 101.27,239.80 84.86,239.82 68.44,239.85 52.03,239.87 35.61,239.89 19.18,239.91 6.82,238.04 1.57,228.89 0.25,213.20 0.03,196.09 0.04,178.60 0.10,161.02 0.17,143.41 0.20,125.80 0.13,108.18 0.01,90.56 -0.11,72.95 -0.23,55.33 -0.36,37.71 -0.47,20.07 1.34,6.97 10.02,1.50 24.69,0.06 40.65,-0.24 56.93,-0.29 73.30,-0.29 89.70,-0.28 106.10,-0.26 122.50,-0.24 138.90,-0.22 155.30,-0.20 171.70,-0.18 188.10,-0.16 204.50,-0.14 220.90,-0.12 237.30,-0.10 253.70,-0.08 270.10,-0.06 286.50,-0.04 302.90,-0.02 319.30,-0.00 335.70,0.02 352.10,0.04 368.50,0.03 384.90,-0.01 401.30,-0.05 417.70,-0.09 434.10,-0.13 450.50,-0.17 466.90,-0.21 483.30,-0.25 499.70,-0.28 516.10,-0.32 532.50,-0.36 548.91,-0.40 565.31,-0.44 581.71,-0.48 598.11,-0.52 614.51,-0.56 630.91,-0.60 647.31,-0.64 663.71,-0.68 680.11,-0.72 696.51,-0.75 712.93,-0.79 725.28,1.07 730.54,10.23 731.91,25.97 732.17,43.13 732.21,60.67 732.20,78.31 732.17,95.97 732.19,113.63 732.31,131.30 732.49,152.00 732.55,164.05 732.42,164.43 732.18,164.75 731.85,164.98 731.47,165.08 731.07,165.06 730.70,164.92 730.39,164.66 730.19,164.32 730.10,163.93 730.14,163.53 730.31,163.17 730.58,162.88 730.93,162.69 731.33,162.63 731.72,162.69 732.07,162.87 732.35,163.16 732.52,163.52 732.56,163.92 732.48,164.31 732.27,164.65 731.97,164.91 731.60,165.06 731.20,165.09 730.82,164.98 730.49,164.76 730.24,164.44 730.11,164.06 730.08,163.86 730.09,152.00 730.11,131.31 730.09,113.64 729.97,95.98 729.80,78.32 729.61,60.69 729.37,43.19 728.92,26.22 727.88,11.32 724.10,3.58 712.89,2.47 696.51,2.46 680.11,2.44 663.71,2.42 647.31,2.40 630.91,2.38 614.51,2.36 598.11,2.34 581.71,2.32 565.31,2.30 548.91,2.28 532.51,2.26 516.11,2.24 499.71,2.22 483.31,2.20 466.90,2.18 450.50,2.16 434.10,2.14 417.70,2.12 401.30,2.10 384.90,2.08 368.50,2.06 352.10,2.07 335.70,2.11 319.30,2.15 302.90,2.19 286.50,2.22 270.10,2.26 253.70,2.30 237.30,2.34 220.90,2.38 204.50,2.42 188.10,2.46 171.70,2.50 155.30,2.54 138.90,2.58 122.50,2.62 106.10,2.66 89.70,2.70 73.31,2.74 56.95,2.80 40.71,2.92 24.97,3.25 11.14,4.22 3.87,8.13 2.72,20.11 2.64,37.71 2.57,55.33 2.49,72.94 2.41,90.56 2.33,108.18 2.30,125.79 2.37,143.41 2.50,161.01 2.64,178.59 2.83,196.03 3.24,212.96 4.24,227.82 8.00,235.53 19.23,236.65 35.62,236.68 52.03,236.72 68.44,236.75 84.86,236.79 101.27,236.82 117.69,236.86 134.10,236.89 150.52,236.93 166.93,236.96 183.34,237.00 199.76,237.04 216.17,237.07 232.59,237.11 249.00,237.14 265.41,237.18 281.83,237.21 298.24,237.25 314.66,237.28 331.07,237.32 347.49,237.36 363.90,237.39 380.31,237.40 396.73,237.37 413.14,237.35 429.56,237.33 445.97,237.30 462.39,237.28 478.80,237.25 495.21,237.23 511.63,237.21 528.04,237.18 544.46,237.16 560.87,237.14 577.28,237.11 593.70,237.09 610.11,237.07 626.53,237.04 642.94,237.02 659.34,236.99 675.71,236.94 691.97,236.84 707.72,236.52 721.56,235.56 728.83,231.65 729.95,219.64 729.98,201.99 730.01,184.32 730.04,166.67 730.07,149.04 730.11,131.56 730.09,114.61 729.99,99.77 729.93,93.05 729.99,92.78 730.12,92.54 730.30,92.33 730.53,92.17 730.78,92.07 731.06,92.04 731.33,92.07 731.59,92.17 731.81,92.32 732.00,92.53 732.13,92.77 732.19,93.04 Z" fill="#0e98ad" stroke="#0e98ad" stroke-width="2" pointer-events="none"/></g><text font-size="28px" font-family="Source Code Pro" font-weight="normal" line-height="28px" letter-spacing="-0.03em" text-align="center" dominant-baseline="mathematical" alignment-baseline="mathematical" text-anchor="middle" transform="translate(106.125, 44.93)" fill="#0e98ad" transform-origin="center center"><tspan y="14px" x="260">Books(C) 
 
</tspan><tspan y="42px" x="260">

</tspan><tspan y="70px" x="260">ID, name, author, categories(E) 
 
</tspan><tspan y="98px" x="260">
compareTo(m)
</tspan></text></g><g id="6b53ad6f-368f-4954-3a88-311dc4b7edd7_svg" class="tl-centered-g" transform="translate(738.73, 1612.06) rotate(0.00, 0.50, 31.73)"><defs><mask id="6b53ad6f-368f-4954-3a88-311dc4b7edd7_clip"><rect x="-100" y="-100" width="201" height="263.46" fill="white"/><rect x="0.20" y="31.73" width="0" height="0" rx="2" ry="2" fill="black" opacity="1"/></mask></defs><g pointer-events="none" opacity="1" mask=""><path d="M-0.61,63.47 Q-0.65,48.10 -0.68,40.42 T-0.74,25.05 -0.81,9.69 -0.83,1.87 -0.74,1.61 -0.58,1.38 -0.35,1.23 -0.08,1.15 0.19,1.17 0.45,1.27 0.66,1.44 0.80,1.68 0.86,1.95 0.84,2.22 0.72,2.47 0.53,2.68 0.29,2.81 0.02,2.85 -0.25,2.81 -0.50,2.68 -0.69,2.48 -0.81,2.23 -0.84,1.96 -0.78,1.69 -0.64,1.45 -0.43,1.27 -0.18,1.17 0.10,1.15 0.37,1.22 0.60,1.38 0.76,1.60 0.85,1.86 0.88,1.99 0.94,9.68 1.07,25.04 1.20,40.41 1.35,55.77 1.42,63.58 1.36,63.81 1.25,64.03 1.09,64.22 0.89,64.36 0.66,64.45 0.42,64.48 0.17,64.45 -0.06,64.36 -0.26,64.23 -0.42,64.04 -0.54,63.83 -0.60,63.59 Z" fill="#0e98ad" stroke="#0e98ad" stroke-width="2.11" stroke-dasharray="none" stroke-dashoffset="none" stroke-linecap="round" stroke-linejoin="round" pointer-events="stroke"/><g><path d="M -7.910311953948946,13.907802299112983 L 0,0 8.08,13.804432253536" fill="none" stroke="#0e98ad" stroke-width="4.23" stroke-linecap="round" stroke-linejoin="round" pointer-events="none"/></g></g></g><g text-align="center" text-anchor="middle" transform="translate(588.51, 1525.65) rotate(0.00, 156.76, 44.11)"><g id="860fa405-f099-46aa-394c-a277b64ca94f_svg" class="tl-centered-g"><path d="M313.36,60.82 Q313.55,69.18 313.64,74.47 T311.86,83.13 302.99,87.41 287.95,88.47 271.60,88.61 254.89,88.57 238.09,88.49 221.27,88.39 204.44,88.30 187.60,88.20 170.77,88.10 153.94,88.08 137.10,88.13 120.27,88.17 103.44,88.22 86.60,88.27 69.77,88.32 52.94,88.36 36.10,88.41 19.25,88.45 6.67,86.66 1.37,79.94 0.02,69.57 -0.20,58.56 -0.28,47.40 -0.49,36.20 -0.78,25.00 -1.05,13.74 0.66,4.63 9.53,0.23 24.60,-0.87 40.98,-1.02 57.73,-0.99 74.56,-0.91 91.42,-0.82 108.29,-0.73 125.16,-0.64 142.03,-0.54 158.90,-0.52 175.77,-0.57 192.64,-0.63 209.51,-0.68 226.38,-0.73 243.25,-0.78 260.12,-0.83 276.99,-0.88 293.88,-0.93 306.49,0.86 311.75,7.59 313.02,17.97 313.15,29.00 313.14,40.16 313.26,51.37 313.46,64.51 313.51,72.28 313.37,72.72 313.08,73.09 312.70,73.36 312.25,73.48 311.78,73.46 311.34,73.28 310.99,72.98 310.75,72.58 310.65,72.12 310.70,71.66 310.89,71.23 311.21,70.90 311.63,70.68 312.09,70.60 312.55,70.68 312.96,70.89 313.28,71.23 313.48,71.66 313.53,72.12 313.43,72.58 313.19,72.98 312.83,73.28 312.40,73.46 311.93,73.48 311.48,73.36 311.10,73.09 310.81,72.72 310.66,72.28 310.62,72.05 310.71,64.51 310.89,51.38 310.96,40.18 310.78,29.07 310.31,18.32 309.25,8.88 305.37,3.50 293.83,2.29 276.98,2.20 260.11,2.11 243.24,2.01 226.37,1.92 209.50,1.83 192.63,1.74 175.76,1.64 158.90,1.55 142.03,1.53 125.16,1.58 108.29,1.63 91.42,1.69 74.56,1.74 57.73,1.81 41.02,1.92 24.81,2.21 10.59,2.95 3.18,5.86 2.04,13.80 1.96,24.97 1.88,36.18 1.90,47.37 2.17,58.47 2.73,69.21 3.87,78.63 7.77,84.01 19.30,85.23 36.11,85.33 52.94,85.42 69.77,85.52 86.61,85.62 103.44,85.72 120.27,85.81 137.11,85.91 153.94,86.01 170.77,86.03 187.61,85.98 204.44,85.94 221.27,85.89 238.09,85.84 254.89,85.77 271.56,85.67 287.75,85.39 301.93,84.68 309.34,81.88 310.54,74.39 310.71,65.00 310.82,60.67 310.90,60.37 311.04,60.10 311.24,59.87 311.49,59.70 311.78,59.59 312.08,59.55 312.39,59.59 312.67,59.70 312.93,59.87 313.13,60.10 313.27,60.37 313.34,60.67 Z" fill="#0e98ad" stroke="#0e98ad" stroke-width="2" pointer-events="none"/></g><text font-size="28px" font-family="Source Code Pro" font-weight="normal" line-height="28px" letter-spacing="-0.03em" text-align="center" dominant-baseline="mathematical" alignment-baseline="mathematical" text-anchor="middle" transform="translate(48.264999999999986, 25.11)" fill="#0e98ad" transform-origin="center center"><tspan y="14px" x="108.5">Comparable(I)
</tspan></text></g><g text-align="center" text-anchor="middle" transform="translate(1159.79, 1494.06) rotate(0.00, 156.76, 81.19)"><g id="17e73403-3512-435f-04a0-5f6d1fcc3443_svg" class="tl-centered-g"><path d="M-0.10,73.01 Q-0.30,60.48 -0.41,52.62 T-0.63,36.48 -0.84,19.81 0.91,7.24 9.77,1.91 24.83,0.52 41.23,0.25 57.97,0.20 74.81,0.21 91.67,0.23 108.53,0.25 125.40,0.28 142.27,0.31 159.14,0.26 176.00,0.14 192.87,0.03 209.74,-0.09 226.60,-0.21 243.47,-0.33 260.34,-0.45 277.21,-0.56 294.10,-0.68 306.74,1.13 312.06,10.03 313.41,25.18 313.64,41.68 313.66,58.52 313.68,75.46 313.84,92.42 314.06,109.39 314.29,126.36 314.51,143.35 312.75,156.06 303.90,161.39 288.84,162.73 272.43,162.93 255.69,162.91 238.85,162.83 221.99,162.73 205.12,162.64 188.25,162.54 171.38,162.44 154.51,162.41 137.64,162.45 120.77,162.50 103.90,162.54 87.03,162.59 70.16,162.63 53.29,162.68 36.42,162.72 19.53,162.76 6.89,160.91 1.58,152.05 0.23,137.02 -0.00,120.66 -0.01,103.96 -0.03,87.17 -0.18,70.36 -0.42,50.66 -0.51,39.15 -0.37,38.74 -0.11,38.39 0.25,38.14 0.67,38.03 1.10,38.05 1.51,38.21 1.84,38.49 2.07,38.86 2.16,39.28 2.12,39.71 1.94,40.11 1.64,40.43 1.25,40.63 0.83,40.70 0.40,40.64 0.01,40.43 -0.29,40.12 -0.47,39.73 -0.52,39.29 -0.43,38.87 -0.21,38.50 0.12,38.21 0.53,38.05 0.96,38.02 1.38,38.14 1.74,38.38 2.00,38.73 2.14,39.14 2.18,39.35 2.16,50.65 2.11,70.35 2.11,87.16 2.28,103.94 2.57,120.60 3.08,136.76 4.19,150.95 8.07,158.38 19.58,159.54 36.43,159.64 53.30,159.74 70.17,159.84 87.04,159.94 103.91,160.04 120.78,160.14 137.65,160.24 154.52,160.34 171.38,160.36 188.25,160.32 205.12,160.27 221.99,160.23 238.85,160.18 255.68,160.12 272.38,160.00 288.58,159.66 302.81,158.70 310.24,154.89 311.36,143.32 311.42,126.37 311.49,109.40 311.55,92.43 311.54,75.47 311.37,58.54 311.07,41.74 310.56,25.44 309.44,11.13 305.57,3.66 294.06,2.54 277.21,2.52 260.35,2.49 243.48,2.47 226.61,2.44 209.74,2.41 192.88,2.39 176.01,2.36 159.14,2.33 142.27,2.38 125.41,2.50 108.54,2.61 91.67,2.73 74.82,2.86 57.99,2.99 41.29,3.18 25.09,3.59 10.87,4.60 3.44,8.40 2.31,19.84 2.24,36.47 2.17,52.60 2.09,66.74 2.03,73.13 1.97,73.38 1.85,73.61 1.68,73.80 1.47,73.95 1.23,74.04 0.98,74.07 0.72,74.04 0.48,73.95 0.27,73.81 0.10,73.62 -0.02,73.39 -0.09,73.14 Z" fill="#0e98ad" stroke="#0e98ad" stroke-width="2" pointer-events="none"/></g><text font-size="28px" font-family="Source Code Pro" font-weight="normal" line-height="28px" letter-spacing="-0.03em" text-align="center" dominant-baseline="mathematical" alignment-baseline="mathematical" text-anchor="middle" transform="translate(24.264999999999986, 6.19)" fill="#0e98ad" transform-origin="center center"><tspan y="14px" x="132.5">Categories(E) 
 
</tspan><tspan y="42px" x="132.5">

</tspan><tspan y="70px" x="132.5">SCIENCE_FICTION 

</tspan><tspan y="98px" x="132.5">ACTION 

</tspan><tspan y="126px" x="132.5">ADVENTURE
</tspan></text></g><g text-align="center" text-anchor="middle" transform="translate(546.18, 2203.90) rotate(0.00, 186.62, 97.75)"><g id="9303bd27-3f81-4727-307f-d517b20b53e6_svg" class="tl-centered-g"><path d="M373.15,89.42 Q373.15,101.94 373.22,109.80 T373.34,125.93 373.47,142.58 373.60,159.35 373.72,176.18 371.92,188.78 363.20,194.11 348.46,195.49 332.43,195.75 316.07,195.78 299.62,195.75 283.14,195.71 266.67,195.67 250.19,195.62 233.71,195.58 217.23,195.53 200.75,195.49 184.26,195.50 167.78,195.58 151.30,195.65 134.82,195.72 118.34,195.80 101.86,195.87 85.38,195.94 68.90,196.02 52.42,196.09 35.94,196.16 19.44,196.23 7.05,194.40 1.77,185.55 0.40,170.50 0.14,154.12 0.09,137.40 0.11,120.58 0.07,103.75 -0.08,86.90 -0.28,70.06 -0.49,53.22 -0.69,36.37 -0.89,19.50 0.86,6.88 9.58,1.54 24.35,0.17 40.42,-0.07 56.82,-0.09 73.31,-0.05 89.82,0.01 106.34,0.06 122.86,0.12 139.38,0.18 155.90,0.24 172.41,0.30 188.93,0.30 205.45,0.24 221.97,0.18 238.49,0.13 255.01,0.07 271.53,0.01 288.05,-0.05 304.57,-0.11 321.09,-0.17 337.61,-0.23 354.15,-0.28 366.57,1.56 371.82,10.41 373.12,25.43 373.31,41.79 373.28,58.48 373.19,75.26 373.15,92.07 373.22,108.88 373.35,128.58 373.38,140.07 373.25,140.46 373.00,140.79 372.65,141.02 372.26,141.14 371.84,141.11 371.46,140.96 371.14,140.69 370.93,140.34 370.84,139.93 370.88,139.52 371.06,139.15 371.34,138.85 371.71,138.65 372.12,138.59 372.52,138.65 372.89,138.85 373.17,139.15 373.35,139.52 373.39,139.93 373.30,140.34 373.09,140.69 372.78,140.96 372.39,141.11 371.98,141.14 371.58,141.03 371.24,140.79 370.99,140.46 370.86,140.07 370.82,139.87 370.87,128.58 370.98,108.89 371.03,92.07 370.95,75.27 370.81,58.49 370.60,41.84 370.19,25.69 369.18,11.50 365.39,4.09 354.10,2.95 337.61,2.90 321.09,2.84 304.57,2.78 288.05,2.72 271.53,2.66 255.01,2.60 238.49,2.54 221.97,2.48 205.45,2.42 188.93,2.36 172.41,2.36 155.90,2.42 139.38,2.48 122.86,2.54 106.34,2.60 89.82,2.66 73.31,2.72 56.84,2.80 40.48,2.93 24.62,3.28 10.69,4.24 3.39,8.04 2.28,19.53 2.25,36.36 2.22,53.20 2.19,70.05 2.16,86.89 2.19,103.74 2.34,120.57 2.57,137.37 2.85,154.06 3.33,170.24 4.41,184.44 8.22,191.87 19.48,193.00 35.94,193.04 52.42,193.09 68.90,193.13 85.38,193.18 101.86,193.22 118.34,193.26 134.82,193.31 151.30,193.35 167.78,193.40 184.26,193.44 200.74,193.43 217.22,193.36 233.70,193.28 250.18,193.21 266.66,193.14 283.14,193.06 299.61,192.98 316.05,192.89 332.37,192.74 348.19,192.38 362.09,191.41 369.39,187.61 370.55,176.13 370.66,159.35 370.76,142.58 370.87,125.94 370.98,109.81 371.03,95.68 371.04,89.29 371.10,89.04 371.22,88.82 371.39,88.63 371.60,88.49 371.84,88.40 372.09,88.36 372.34,88.39 372.58,88.48 372.78,88.63 372.95,88.82 373.07,89.04 373.13,89.29 Z" fill="#0e98ad" stroke="#0e98ad" stroke-width="2" pointer-events="none"/></g><text font-size="28px" font-family="Source Code Pro" font-weight="normal" line-height="28px" letter-spacing="-0.03em" text-align="center" dominant-baseline="mathematical" alignment-baseline="mathematical" text-anchor="middle" transform="translate(-1.884999999999991, 50.75)" fill="#0e98ad" transform-origin="center center"><tspan y="14px" x="188.5">Main(C) 
 
</tspan><tspan y="42px" x="188.5">

</tspan><tspan y="70px" x="188.5">LibraryOrganisation(m)
</tspan></text></g><g id="194448f6-3f03-487a-00ec-778bacb46aa9_svg" class="tl-centered-g" transform="translate(462.24, 2047.91) rotate(0.00, 270.38, 257.79)"><path d="M434.42,460.96 Q432.16,462.80 430.72,463.90 T427.22,466.52 423.91,468.92 421.22,470.79 418.20,472.82 414.84,474.98 411.12,477.27 407.04,479.65 402.60,482.11 397.77,484.62 392.55,487.16 386.96,489.72 380.99,492.31 374.64,494.91 367.90,497.47 360.77,499.98 353.24,502.40 345.31,504.70 336.99,506.84 328.28,508.80 319.17,510.54 309.69,512.01 299.83,513.20 289.62,514.06 279.06,514.57 268.18,514.69 257.00,514.38 245.54,513.61 233.82,512.34 221.88,510.54 209.76,508.17 197.49,505.21 185.10,501.62 172.66,497.39 160.19,492.47 147.76,486.86 135.42,480.54 123.23,473.48 111.24,465.69 99.51,457.14 88.11,447.85 77.11,437.82 66.57,427.05 56.56,415.55 47.14,403.35 38.38,390.47 30.36,376.95 23.12,362.81 16.74,348.10 11.28,332.88 6.79,317.19 3.33,301.09 0.94,284.65 -0.33,267.95 -0.45,251.05 0.62,234.03 2.90,216.98 6.41,199.98 11.17,183.12 17.16,166.50 24.39,150.20 32.84,134.31 42.49,118.93 53.30,104.15 65.24,90.05 78.26,76.73 92.30,64.26 107.30,52.73 123.18,42.21 139.87,32.76 157.27,24.44 175.31,17.33 193.87,11.45 212.87,6.85 232.19,3.56 251.73,1.60 271.38,0.99 291.03,1.74 310.56,3.83 329.88,7.26 348.86,12.01 367.42,18.03 385.43,25.30 402.82,33.77 419.47,43.38 435.31,54.07 450.26,65.78 464.25,78.42 477.20,91.92 489.06,106.21 499.78,121.18 509.31,136.75 517.63,152.84 524.72,169.34 530.54,186.16 535.11,203.21 538.41,220.40 540.46,237.64 541.28,254.83 540.89,271.91 539.33,288.77 536.62,305.36 532.82,321.59 527.97,337.39 522.13,352.72 515.36,367.50 507.71,381.69 499.25,395.25 490.06,408.14 480.18,420.32 469.71,431.77 458.69,442.47 447.21,452.41 435.33,461.57 423.12,469.96 410.64,477.57 397.96,484.41 385.13,490.49 372.23,495.83 359.30,500.44 346.39,504.36 333.55,507.60 320.84,510.18 308.29,512.15 295.94,513.54 283.82,514.37 271.98,514.68 260.43,514.52 249.20,513.91 238.31,512.88 227.78,511.49 217.62,509.76 207.86,507.73 198.49,505.44 189.52,502.92 180.97,500.20 172.82,497.33 165.09,494.33 157.77,491.24 150.86,488.08 144.35,484.89 138.24,481.69 132.52,478.51 127.19,475.37 122.22,472.31 117.61,469.36 113.35,466.52 109.44,463.80 105.87,461.21 102.63,458.78 99.73,456.52 97.14,454.43 93.94,451.74 89.49,447.79 87.02,445.53 87.03,445.52 89.64,447.61 94.30,451.30 97.59,453.85 100.24,455.84 103.19,458.03 106.45,460.39 110.04,462.92 113.96,465.59 118.23,468.38 122.84,471.28 127.83,474.25 133.20,477.27 138.94,480.34 145.06,483.43 151.57,486.51 158.47,489.56 165.77,492.56 173.48,495.46 181.58,498.25 190.09,500.88 199.00,503.34 208.30,505.57 218.00,507.56 228.07,509.25 238.52,510.62 249.32,511.62 260.46,512.23 271.92,512.39 283.67,512.08 295.68,511.26 307.94,509.89 320.38,507.94 332.99,505.37 345.72,502.17 358.53,498.29 371.35,493.71 384.15,488.42 396.87,482.39 409.45,475.61 421.82,468.07 433.93,459.76 445.71,450.68 457.10,440.83 468.02,430.22 478.40,418.88 488.19,406.81 497.31,394.04 505.69,380.60 513.27,366.54 519.99,351.90 525.78,336.72 530.59,321.06 534.36,304.99 537.05,288.56 538.60,271.85 539.00,254.94 538.19,237.91 536.16,220.83 532.89,203.80 528.38,186.91 522.61,170.24 515.60,153.89 507.36,137.95 497.91,122.51 487.29,107.67 475.54,93.51 462.71,80.12 448.85,67.58 434.03,55.97 418.33,45.36 401.81,35.83 384.57,27.43 366.71,20.21 348.31,14.23 329.48,9.52 310.32,6.11 290.94,4.03 271.45,3.28 251.96,3.88 232.57,5.82 213.40,9.07 194.56,13.63 176.15,19.46 158.26,26.51 140.99,34.75 124.45,44.12 108.70,54.55 93.82,65.98 79.90,78.33 66.99,91.53 55.15,105.50 44.43,120.15 34.86,135.39 26.48,151.13 19.32,167.28 13.37,183.75 8.66,200.44 5.17,217.28 2.91,234.17 1.84,251.03 1.95,267.77 3.20,284.32 5.57,300.61 8.99,316.56 13.44,332.10 18.84,347.19 25.16,361.76 32.33,375.78 40.28,389.18 48.95,401.95 58.29,414.04 68.21,425.44 78.66,436.13 89.56,446.08 100.86,455.29 112.49,463.77 124.38,471.50 136.47,478.50 148.71,484.77 161.03,490.34 173.39,495.22 185.74,499.42 198.02,502.98 210.20,505.92 222.23,508.27 234.07,510.06 245.69,511.32 257.06,512.08 268.16,512.39 278.95,512.27 289.42,511.76 299.55,510.89 309.33,509.71 318.74,508.24 327.77,506.53 336.42,504.61 344.68,502.50 352.55,500.25 360.03,497.88 367.12,495.41 373.81,492.88 380.11,490.30 386.02,487.69 391.54,485.09 396.69,482.54 401.50,480.08 405.95,477.71 410.07,475.47 413.85,473.36 417.30,471.39 420.43,469.57 423.23,467.90 426.71,465.77 430.41,463.46 433.17,461.71 Z" fill="#0e98ad" stroke="#0e98ad" stroke-width="2" pointer-events="none" stroke-linecap="round" stroke-linejoin="round"/></g><g id="0709aefe-dfb7-4744-3ab7-17098a9aa3ca_svg" class="tl-centered-g" transform="translate(1038.61, 1572.37) rotate(0.00, 0.50, 50.88)"><defs><mask id="0709aefe-dfb7-4744-3ab7-17098a9aa3ca_clip"><rect x="-100" y="-100" width="201" height="301.75" fill="white"/><rect x="0.08" y="50.87" width="0" height="0" rx="3.17" ry="3.17" fill="black" opacity="1"/></mask></defs><g pointer-events="none" opacity="1" mask=""><path d="M-1.04,101.75 Q-0.94,76.81 -0.90,64.34 T-0.82,39.40 -0.75,14.47 -0.69,1.86 -0.60,1.59 -0.43,1.36 -0.19,1.20 0.08,1.12 0.37,1.14 0.63,1.25 0.85,1.43 1.00,1.68 1.06,1.95 1.03,2.24 0.90,2.50 0.71,2.70 0.46,2.84 0.17,2.88 -0.11,2.83 -0.36,2.70 -0.55,2.49 -0.67,2.23 -0.70,1.95 -0.64,1.67 -0.49,1.43 -0.28,1.24 -0.01,1.14 0.27,1.12 0.55,1.20 0.78,1.36 0.96,1.59 1.05,1.86 1.07,2.00 1.06,14.47 1.04,39.41 1.03,64.35 1.04,89.28 1.03,101.88 0.97,102.12 0.85,102.34 0.69,102.53 0.48,102.67 0.25,102.76 -0.00,102.79 -0.25,102.76 -0.48,102.67 -0.69,102.53 -0.85,102.34 -0.97,102.12 -1.03,101.87 Z" fill="#0e98ad" stroke="#0e98ad" stroke-width="2.11" stroke-dasharray="none" stroke-dashoffset="none" stroke-linecap="round" stroke-linejoin="round" pointer-events="stroke"/><g><path d="M -7.844500005435744,13.842232466721606 L 0.18,0 8.15,13.870537090736525" fill="none" stroke="#0e98ad" stroke-width="4.23" stroke-linecap="round" stroke-linejoin="round" pointer-events="none"/></g></g></g><g id="6aaddb0c-fe5a-439f-20d7-943a7d64b8ac_svg" class="tl-centered-g" transform="translate(1041.59, 1570.97) rotate(0.00, 59.48, 0.50)"><defs><mask id="6aaddb0c-fe5a-439f-20d7-943a7d64b8ac_clip"><rect x="-100" y="-100" width="318.95" height="201" fill="white"/><rect x="59.47" y="0" width="0" height="0" rx="3.71" ry="3.71" fill="black" opacity="1"/></mask></defs><g pointer-events="none" opacity="1" mask=""><path d="M0.00,-1.05 Q29.24,-0.99 43.86,-0.97 T73.09,-0.93 102.33,-0.91 117.09,-0.87 117.36,-0.78 117.59,-0.61 117.75,-0.37 117.83,-0.10 117.81,0.19 117.71,0.46 117.52,0.67 117.28,0.82 117.00,0.88 116.71,0.85 116.45,0.73 116.25,0.53 116.11,0.28 116.07,-0.00 116.11,-0.28 116.25,-0.53 116.45,-0.73 116.71,-0.85 117.00,-0.88 117.28,-0.82 117.52,-0.67 117.71,-0.46 117.81,-0.19 117.83,0.10 117.75,0.37 117.59,0.61 117.36,0.78 117.09,0.87 116.95,0.90 102.33,0.91 73.09,0.93 43.86,0.97 14.62,1.02 -0.13,1.03 -0.37,0.97 -0.59,0.85 -0.78,0.69 -0.92,0.48 -1.01,0.25 -1.04,-0.00 -1.01,-0.25 -0.92,-0.48 -0.78,-0.69 -0.59,-0.85 -0.37,-0.97 -0.13,-1.03 Z" fill="#0e98ad" stroke="#0e98ad" stroke-width="2.11" stroke-dasharray="none" stroke-dashoffset="none" stroke-linecap="round" stroke-linejoin="round" pointer-events="stroke"/><g><path d="M 105.09,-7.999999999999999 L 118.95,0 105.09,7.999999999999999" fill="none" stroke="#0e98ad" stroke-width="4.23" stroke-linecap="round" stroke-linejoin="round" pointer-events="none"/></g></g></g></svg>